<svg width="21" height="21" viewBox="0 0 21 21" fill="none" xmlns="http://www.w3.org/2000/svg">
<path d="M19.433 0C19.7455 0 20.0134 0.111607 20.2366 0.334821C20.4598 0.558035 20.5714 0.825892 20.5714 1.13839V19.433C20.5714 19.7455 20.4598 20.0134 20.2366 20.2366C20.0134 20.4598 19.7455 20.5714 19.433 20.5714H14.1964V12.6027H16.8616L17.2634 9.49554H14.1964V7.51339C14.1964 7.01339 14.2991 6.63839 14.5045 6.38839C14.7188 6.13839 15.1295 6.01339 15.7366 6.01339L17.3705 6V3.22768C16.808 3.14732 16.0134 3.10714 14.9866 3.10714C13.7723 3.10714 12.7991 3.46429 12.067 4.17857C11.3438 4.89286 10.9821 5.90179 10.9821 7.20536V9.49554H8.30357V12.6027H10.9821V20.5714H1.13839C0.825893 20.5714 0.558036 20.4598 0.334821 20.2366C0.111607 20.0134 0 19.7455 0 19.433V1.13839C0 0.825892 0.111607 0.558035 0.334821 0.334821C0.558036 0.111607 0.825893 0 1.13839 0H19.433Z" fill="white"/>
</svg>
