<svg width="21" height="21" viewBox="0 0 21 21" fill="none" xmlns="http://www.w3.org/2000/svg">
<path d="M12.7098 12.7098C13.3795 12.0402 13.7143 11.2321 13.7143 10.2857C13.7143 9.33929 13.3795 8.53125 12.7098 7.86161C12.0402 7.19196 11.2321 6.85714 10.2857 6.85714C9.33929 6.85714 8.53125 7.19196 7.86161 7.86161C7.19196 8.53125 6.85714 9.33929 6.85714 10.2857C6.85714 11.2321 7.19196 12.0402 7.86161 12.7098C8.53125 13.3795 9.33929 13.7143 10.2857 13.7143C11.2321 13.7143 12.0402 13.3795 12.7098 12.7098ZM14.0223 6.54911C15.0491 7.57589 15.5625 8.82143 15.5625 10.2857C15.5625 11.75 15.0491 12.9955 14.0223 14.0223C12.9955 15.0491 11.75 15.5625 10.2857 15.5625C8.82143 15.5625 7.57589 15.0491 6.54911 14.0223C5.52232 12.9955 5.00893 11.75 5.00893 10.2857C5.00893 8.82143 5.52232 7.57589 6.54911 6.54911C7.57589 5.52232 8.82143 5.00893 10.2857 5.00893C11.75 5.00893 12.9955 5.52232 14.0223 6.54911ZM16.6473 3.92411C16.8884 4.16518 17.0089 4.45536 17.0089 4.79464C17.0089 5.13393 16.8884 5.42411 16.6473 5.66518C16.4063 5.90625 16.1161 6.02679 15.7768 6.02679C15.4375 6.02679 15.1473 5.90625 14.9062 5.66518C14.6652 5.42411 14.5446 5.13393 14.5446 4.79464C14.5446 4.45536 14.6652 4.16518 14.9062 3.92411C15.1473 3.68304 15.4375 3.5625 15.7768 3.5625C16.1161 3.5625 16.4063 3.68304 16.6473 3.92411ZM11.3036 1.84822C10.6875 1.84822 10.3482 1.84822 10.2857 1.84822C10.2232 1.84822 9.87946 1.84822 9.25446 1.84822C8.63839 1.83929 8.16964 1.83929 7.84821 1.84822C7.52679 1.84822 7.09375 1.86161 6.54911 1.88839C6.01339 1.90625 5.55357 1.95089 5.16964 2.02232C4.79464 2.08482 4.47768 2.16518 4.21875 2.26339C3.77232 2.44196 3.37946 2.70089 3.04018 3.04018C2.70089 3.37946 2.44196 3.77232 2.26339 4.21875C2.16518 4.47768 2.08036 4.79911 2.00893 5.18304C1.94643 5.55804 1.90179 6.01786 1.875 6.5625C1.85714 7.09822 1.84375 7.52679 1.83482 7.84822C1.83482 8.16964 1.83482 8.64286 1.83482 9.26786C1.84375 9.88393 1.84821 10.2232 1.84821 10.2857C1.84821 10.3482 1.84375 10.692 1.83482 11.317C1.83482 11.933 1.83482 12.4018 1.83482 12.7232C1.84375 13.0446 1.85714 13.4777 1.875 14.0223C1.90179 14.558 1.94643 15.0179 2.00893 15.4018C2.08036 15.7768 2.16518 16.0938 2.26339 16.3527C2.44196 16.7991 2.70089 17.192 3.04018 17.5312C3.37946 17.8705 3.77232 18.1295 4.21875 18.308C4.47768 18.4063 4.79464 18.4911 5.16964 18.5625C5.55357 18.625 6.01339 18.6696 6.54911 18.6964C7.09375 18.7143 7.52679 18.7277 7.84821 18.7366C8.16964 18.7366 8.63839 18.7366 9.25446 18.7366C9.87946 18.7277 10.2232 18.7232 10.2857 18.7232C10.3482 18.7232 10.6875 18.7277 11.3036 18.7366C11.9286 18.7366 12.4018 18.7366 12.7232 18.7366C13.0446 18.7277 13.4732 18.7143 14.0089 18.6964C14.5536 18.6696 15.0134 18.625 15.3884 18.5625C15.7723 18.4911 16.0938 18.4063 16.3527 18.308C16.7991 18.1295 17.192 17.8705 17.5313 17.5312C17.8705 17.192 18.1295 16.7991 18.308 16.3527C18.4062 16.0938 18.4866 15.7768 18.5491 15.4018C18.6205 15.0179 18.6652 14.558 18.683 14.0223C18.7098 13.4777 18.7232 13.0446 18.7232 12.7232C18.7321 12.4018 18.7321 11.933 18.7232 11.317C18.7232 10.692 18.7232 10.3482 18.7232 10.2857C18.7232 10.2232 18.7232 9.88393 18.7232 9.26786C18.7321 8.64286 18.7321 8.16964 18.7232 7.84822C18.7232 7.52679 18.7098 7.09822 18.683 6.5625C18.6652 6.01786 18.6205 5.55804 18.5491 5.18304C18.4866 4.79911 18.4062 4.47768 18.308 4.21875C18.1295 3.77232 17.8705 3.37946 17.5313 3.04018C17.192 2.70089 16.7991 2.44196 16.3527 2.26339C16.0938 2.16518 15.7723 2.08482 15.3884 2.02232C15.0134 1.95089 14.5536 1.90625 14.0089 1.88839C13.4732 1.86161 13.0446 1.84822 12.7232 1.84822C12.4018 1.83929 11.9286 1.83929 11.3036 1.84822ZM20.5045 6.04018C20.5491 6.82589 20.5714 8.24107 20.5714 10.2857C20.5714 12.3304 20.5491 13.7455 20.5045 14.5312C20.4152 16.3884 19.8616 17.8259 18.8438 18.8438C17.8259 19.8616 16.3884 20.4152 14.5312 20.5045C13.7455 20.5491 12.3304 20.5714 10.2857 20.5714C8.24107 20.5714 6.82589 20.5491 6.04018 20.5045C4.18304 20.4152 2.74554 19.8616 1.72768 18.8438C0.709821 17.8259 0.15625 16.3884 0.0669643 14.5312C0.0223214 13.7455 0 12.3304 0 10.2857C0 8.24107 0.0223214 6.82589 0.0669643 6.04018C0.15625 4.18304 0.709821 2.74554 1.72768 1.72768C2.74554 0.709821 4.18304 0.15625 6.04018 0.0669651C6.82589 0.0223217 8.24107 0 10.2857 0C12.3304 0 13.7455 0.0223217 14.5312 0.0669651C16.3884 0.15625 17.8259 0.709821 18.8438 1.72768C19.8616 2.74554 20.4152 4.18304 20.5045 6.04018Z" fill="white"/>
</svg>
