<svg width="22" height="18" viewBox="0 0 22 18" fill="none" xmlns="http://www.w3.org/2000/svg">
<path d="M21.1071 2.03571C20.5089 2.91071 19.7857 3.65625 18.9375 4.27232C18.9464 4.39732 18.9509 4.58482 18.9509 4.83482C18.9509 5.99553 18.7813 7.15625 18.442 8.31696C18.1027 9.46875 17.5848 10.5759 16.8884 11.6384C16.2009 12.7009 15.3795 13.6429 14.4241 14.4643C13.4688 15.2768 12.317 15.9286 10.9688 16.4196C9.62054 16.9018 8.17857 17.1429 6.64286 17.1429C4.22321 17.1429 2.00893 16.4955 0 15.2009C0.3125 15.2366 0.660714 15.2545 1.04464 15.2545C3.05357 15.2545 4.84375 14.6384 6.41518 13.4063C5.47768 13.3884 4.63839 13.1027 3.89732 12.5491C3.15625 11.9866 2.64732 11.2723 2.37054 10.4063C2.66518 10.4509 2.9375 10.4732 3.1875 10.4732C3.57143 10.4732 3.95089 10.4241 4.32589 10.3259C3.32589 10.1205 2.49554 9.625 1.83482 8.83929C1.18304 8.04464 0.857143 7.125 0.857143 6.08036V6.02679C1.46429 6.36607 2.11607 6.54911 2.8125 6.57589C2.22321 6.18304 1.75446 5.66964 1.40625 5.03571C1.05804 4.40179 0.883929 3.71429 0.883929 2.97321C0.883929 2.1875 1.08036 1.45982 1.47321 0.790179C2.55357 2.12054 3.86607 3.1875 5.41071 3.99107C6.96429 4.78571 8.625 5.22768 10.3929 5.31696C10.3214 4.97768 10.2857 4.64732 10.2857 4.32589C10.2857 3.12946 10.7054 2.11161 11.5446 1.27232C12.3929 0.424107 13.4152 0 14.6116 0C15.8616 0 16.9152 0.455357 17.7723 1.36607C18.7455 1.17857 19.6607 0.830357 20.5179 0.321429C20.1875 1.34821 19.5536 2.14286 18.6161 2.70536C19.4464 2.61607 20.2768 2.39286 21.1071 2.03571Z" fill="white"/>
</svg>
