<svg width="24" height="17" viewBox="0 0 24 17" fill="none" xmlns="http://www.w3.org/2000/svg">
<path d="M9.52299 11.5446L16.0051 8.19643L9.52299 4.80804V11.5446ZM12.0007 0C13.5007 0 14.9471 0.0223212 16.34 0.0669637C17.7417 0.102678 18.7685 0.142857 19.4203 0.1875L20.398 0.241071C20.4069 0.241071 20.4828 0.25 20.6257 0.267856C20.7685 0.276785 20.8712 0.290178 20.9337 0.308035C20.9962 0.316963 21.0989 0.33482 21.2417 0.361606C21.3935 0.388392 21.523 0.424107 21.6301 0.46875C21.7373 0.513392 21.8623 0.571428 22.0051 0.642856C22.148 0.714285 22.2864 0.803571 22.4203 0.910714C22.5542 1.00893 22.6837 1.125 22.8087 1.25893C22.8623 1.3125 22.9292 1.39732 23.0096 1.51339C23.0989 1.62053 23.2283 1.87946 23.398 2.29018C23.5766 2.70089 23.6971 3.15179 23.7596 3.64286C23.831 4.21429 23.8846 4.82589 23.9203 5.47768C23.965 6.12053 23.9917 6.625 24.0007 6.99107V7.52679V9.34822C24.0096 10.6429 23.9292 11.9375 23.7596 13.2321C23.6971 13.7232 23.5855 14.1696 23.4248 14.5714C23.2641 14.9643 23.1212 15.2366 22.9962 15.3884L22.8087 15.6161C22.6837 15.75 22.5542 15.8705 22.4203 15.9777C22.2864 16.0759 22.148 16.1607 22.0051 16.2321C21.8623 16.2946 21.7373 16.3482 21.6301 16.3929C21.523 16.4375 21.3935 16.4732 21.2417 16.5C21.0989 16.5268 20.9917 16.5491 20.9203 16.567C20.8578 16.5759 20.7551 16.5893 20.6123 16.6071C20.4783 16.6161 20.4069 16.6205 20.398 16.6205C18.1569 16.7902 15.3578 16.875 12.0007 16.875C10.1525 16.8571 8.54531 16.8304 7.17924 16.7946C5.8221 16.75 4.92924 16.7143 4.50067 16.6875L3.84442 16.6339L3.36228 16.5804C3.04085 16.5357 2.79531 16.4911 2.62567 16.4464C2.46496 16.4018 2.23728 16.308 1.94263 16.1652C1.65692 16.0223 1.40692 15.8393 1.19263 15.6161C1.13906 15.5625 1.06763 15.4821 0.978348 15.375C0.897991 15.2589 0.768527 14.9955 0.589955 14.5848C0.420313 14.1741 0.304241 13.7232 0.241741 13.2321C0.170313 12.6607 0.112277 12.0536 0.0676339 11.4107C0.0319196 10.7589 0.00959821 10.25 0.000669643 9.88393V9.34822V7.52679C-0.00825893 6.23214 0.0720982 4.9375 0.241741 3.64286C0.304241 3.15179 0.415848 2.70982 0.576563 2.31696C0.737277 1.91518 0.880134 1.63839 1.00513 1.48661L1.19263 1.25893C1.31763 1.125 1.4471 1.00893 1.58103 0.910714C1.71496 0.803571 1.85335 0.714285 1.99621 0.642856C2.13906 0.571428 2.26406 0.513392 2.37121 0.46875C2.47835 0.424107 2.60335 0.388392 2.74621 0.361606C2.89799 0.33482 3.00513 0.316963 3.06763 0.308035C3.13013 0.290178 3.23281 0.276785 3.37567 0.267856C3.51853 0.25 3.59442 0.241071 3.60335 0.241071C5.84442 0.0803571 8.64353 0 12.0007 0Z" fill="white"/>
</svg>
